<svg width="38" height="35" viewBox="0 0 38 35" fill="none" xmlns="http://www.w3.org/2000/svg">
<path d="M19 2.91666C10.26 2.91666 3.16666 9.44999 3.16666 17.5C3.16666 25.55 10.26 32.0833 19 32.0833C27.74 32.0833 34.8333 25.55 34.8333 17.5C34.8333 9.44999 27.74 2.91666 19 2.91666ZM19 7.29166C21.6283 7.29166 23.75 9.24582 23.75 11.6667C23.75 14.0875 21.6283 16.0417 19 16.0417C16.3717 16.0417 14.25 14.0875 14.25 11.6667C14.25 9.24582 16.3717 7.29166 19 7.29166ZM19 28C15.0417 28 11.5425 26.1333 9.49999 23.3042C9.54749 20.4021 15.8333 18.8125 19 18.8125C22.1508 18.8125 28.4525 20.4021 28.5 23.3042C26.4575 26.1333 22.9583 28 19 28Z" fill="#2C8D36"/>
</svg> 
