<svg width="479.9px" height="124.439990234375px" xmlns="http://www.w3.org/2000/svg" viewBox="10.050000000000011 12.780004882812499 479.9 124.439990234375" style="background: rgb(253, 253, 253);" preserveAspectRatio="xMidYMid"><defs><linearGradient id="editing-glowing-gradient" x1="0.8146601955249186" x2="0.18533980447508142" y1="0.8885729807284856" y2="0.11142701927151444"><stop offset="0" stop-color="#85a2b6"></stop><stop offset="1" stop-color="#bbcedd"></stop></linearGradient><filter id="editing-glowing" x="-100%" y="-100%" width="300%" height="300%"><feGaussianBlur in="SourceGraphic" result="blur" stdDeviation="10"></feGaussianBlur><feMerge><feMergeNode in="blur"></feMergeNode><feMergeNode in="SourceGraphic"></feMergeNode></feMerge></filter></defs><g filter="url(#editing-glowing)"><g transform="translate(84.2391185760498, 98.68000030517578)"><path d="M29.18 1.28L29.18 1.28L29.18 1.28Q20.99 1.28 20.22-10.37L20.22-10.37L9.22-10.37L9.22-10.37Q7.94-7.42 7.04-4.86L7.04-4.86L5.38 0L-3.58 0L16.58-42.24L30.34-42.24L33.02-11.14L33.02-11.14Q33.66-4.42 36.22-2.43L36.22-2.43L36.22-2.43Q34.37 1.28 29.18 1.28ZM14.72-23.17L11.20-15.04L20.03-15.04L19.26-31.49L19.26-33.22L14.72-23.17ZM71.36-26.62L71.36-26.62L71.36-26.62Q71.36-23.94 69.12-22.27L69.12-22.27L69.12-22.27Q66.88-20.61 63.23-20.61L63.23-20.61L63.23-20.61Q61.70-20.61 60.80-21.06L60.80-21.06L60.80-21.06Q61.50-22.72 61.73-24.80L61.73-24.80L61.73-24.80Q61.95-26.88 61.95-27.46L61.95-27.46L61.95-27.46Q61.95-30.14 60.10-30.14L60.10-30.14L60.10-30.14Q58.82-30.14 57.38-28.54L57.38-28.54L57.38-28.54Q55.94-26.94 54.72-24.45L54.72-24.45L54.72-24.45Q52.03-18.69 52.03-12.86L52.03-12.86L52.03-12.86Q52.03-9.66 53.25-8.22L53.25-8.22L53.25-8.22Q54.46-6.78 57.15-6.78L57.15-6.78L57.15-6.78Q60.86-6.78 63.81-9.86L63.81-9.86L63.81-9.86Q64.64-10.82 65.09-11.90L65.09-11.90L65.09-11.90Q67.52-10.62 67.52-7.10L67.52-7.10L67.52-7.10Q67.52-3.52 63.55-1.15L63.55-1.15L63.55-1.15Q59.46 1.28 52.93 1.28L52.93 1.28L52.93 1.28Q39.94 1.28 39.94-12.48L39.94-12.48L39.94-12.48Q39.94-22.53 45.63-28.29L45.63-28.29L45.63-28.29Q51.14-33.92 61.25-33.92L61.25-33.92L61.25-33.92Q71.36-33.92 71.36-26.62ZM104.51-26.62L104.51-26.62L104.51-26.62Q104.51-23.94 102.27-22.27L102.27-22.27L102.27-22.27Q100.03-20.61 96.38-20.61L96.38-20.61L96.38-20.61Q94.85-20.61 93.95-21.06L93.95-21.06L93.95-21.06Q94.66-22.72 94.88-24.80L94.88-24.80L94.88-24.80Q95.10-26.88 95.10-27.46L95.10-27.46L95.10-27.46Q95.10-30.14 93.25-30.14L93.25-30.14L93.25-30.14Q91.97-30.14 90.53-28.54L90.53-28.54L90.53-28.54Q89.09-26.94 87.87-24.45L87.87-24.45L87.87-24.45Q85.18-18.69 85.18-12.86L85.18-12.86L85.18-12.86Q85.18-9.66 86.40-8.22L86.40-8.22L86.40-8.22Q87.62-6.78 90.30-6.78L90.30-6.78L90.30-6.78Q94.02-6.78 96.96-9.86L96.96-9.86L96.96-9.86Q97.79-10.82 98.24-11.90L98.24-11.90L98.24-11.90Q100.67-10.62 100.67-7.10L100.67-7.10L100.67-7.10Q100.67-3.52 96.70-1.15L96.70-1.15L96.70-1.15Q92.61 1.28 86.08 1.28L86.08 1.28L86.08 1.28Q73.09 1.28 73.09-12.48L73.09-12.48L73.09-12.48Q73.09-22.53 78.78-28.29L78.78-28.29L78.78-28.29Q84.29-33.92 94.40-33.92L94.40-33.92L94.40-33.92Q104.51-33.92 104.51-26.62ZM126.78-2.69L126.78-2.69L126.78-2.69Q123.71 1.28 116.10 1.28L116.10 1.28L116.10 1.28Q112.13 1.28 109.25-1.12L109.25-1.12L109.25-1.12Q106.37-3.52 106.37-6.98L106.37-6.98L106.37-6.98Q106.37-8.90 106.56-9.86L106.56-9.86L110.85-32.64L123.84-33.92L119.17-9.22L119.17-9.22Q118.91-7.81 118.91-6.98L118.91-6.98L118.91-6.98Q118.91-3.26 121.15-3.26L121.15-3.26L121.15-3.26Q123.65-3.26 125.44-6.66L125.44-6.66L125.44-6.66Q126.02-7.74 126.27-9.15L126.27-9.15L130.82-32.64L143.42-33.92L138.69-8.96L138.69-8.96Q138.50-8 138.50-6.98L138.50-6.98L138.50-6.98Q138.50-5.95 139.07-4.83L139.07-4.83L139.07-4.83Q139.65-3.71 141.50-3.46L141.50-3.46L141.50-3.46Q141.12-1.92 139.78-0.90L139.78-0.90L139.78-0.90Q136.96 1.28 133.92 1.28L133.92 1.28L133.92 1.28Q130.88 1.28 129.09 0.19L129.09 0.19L129.09 0.19Q127.30-0.90 126.78-2.69ZM146.24-0.32L146.24-0.32L154.30-42.24L154.30-42.24Q161.86-42.88 166.72-42.88L166.72-42.88L166.72-42.88Q171.58-42.88 174.72-42.46L174.72-42.46L174.72-42.46Q177.86-42.05 179.97-40.96L179.97-40.96L179.97-40.96Q184.19-38.91 184.19-33.28L184.19-33.28L184.19-33.28Q184.19-30.02 181.38-27.26L181.38-27.26L181.38-27.26Q178.75-24.77 175.87-24.19L175.87-24.19L175.87-24.19Q178.94-23.68 181.12-21.38L181.12-21.38L181.12-21.38Q183.42-18.94 183.42-15.17L183.42-15.17L183.42-15.17Q183.42-7.87 177.98-3.62L177.98-3.62L177.98-3.62Q172.54 0.64 161.86 0.64L161.86 0.64L161.86 0.64Q154.50 0.64 146.24-0.32ZM163.65-20.61L160.45-4.03L160.45-4.03Q161.02-3.97 161.15-3.97L161.15-3.97L161.73-3.97L161.73-3.97Q166.98-3.97 169.22-7.42L169.22-7.42L169.22-7.42Q170.88-10.11 170.88-15.04L170.88-15.04L170.88-15.04Q170.88-17.66 169.18-19.07L169.18-19.07L169.18-19.07Q167.49-20.48 163.65-20.61L163.65-20.61ZM173.38-33.22L173.38-33.22L173.38-33.22Q173.38-38.53 168.26-38.53L168.26-38.53L167.68-38.53L167.68-38.53Q167.42-38.53 167.04-38.46L167.04-38.46L164.48-24.96L165.12-24.96L165.12-24.96Q173.38-25.15 173.38-33.22ZM201.60 1.28L201.60 1.28L201.60 1.28Q187.52 1.28 187.52-11.97L187.52-11.97L187.52-11.97Q187.52-21.38 192.70-27.46L192.70-27.46L192.70-27.46Q198.21-33.92 207.74-33.92L207.74-33.92L207.74-33.92Q214.66-33.92 218.18-30.72L218.18-30.72L218.18-30.72Q221.70-27.52 221.70-20.80L221.70-20.80L221.70-20.80Q221.70-10.56 216.19-4.61L216.19-4.61L216.19-4.61Q210.82 1.28 201.60 1.28ZM203.26-26.56L203.26-26.56L203.26-26.56Q202.50-24.83 201.89-22.24L201.89-22.24L201.89-22.24Q201.28-19.65 200.51-15.55L200.51-15.55L200.51-15.55Q199.74-11.46 199.74-6.40L199.74-6.40L199.74-6.40Q199.74-4.74 200.29-3.65L200.29-3.65L200.29-3.65Q200.83-2.56 202.30-2.56L202.30-2.56L202.30-2.56Q203.78-2.56 204.70-3.26L204.70-3.26L204.70-3.26Q205.63-3.97 206.34-5.63L206.34-5.63L206.34-5.63Q207.62-8.58 208.64-14.05L208.64-14.05L208.64-14.05Q209.66-19.52 209.76-21.89L209.76-21.89L209.76-21.89Q209.86-24.26 209.86-26.02L209.86-26.02L209.86-26.02Q209.86-27.78 209.34-28.93L209.34-28.93L209.34-28.93Q208.83-30.08 207.39-30.08L207.39-30.08L207.39-30.08Q205.95-30.08 204.99-29.18L204.99-29.18L204.99-29.18Q204.03-28.29 203.26-26.56ZM239.42 1.28L239.42 1.28L239.42 1.28Q225.34 1.28 225.34-11.97L225.34-11.97L225.34-11.97Q225.34-21.38 230.53-27.46L230.53-27.46L230.53-27.46Q236.03-33.92 245.57-33.92L245.57-33.92L245.57-33.92Q252.48-33.92 256-30.72L256-30.72L256-30.72Q259.52-27.52 259.52-20.80L259.52-20.80L259.52-20.80Q259.52-10.56 254.02-4.61L254.02-4.61L254.02-4.61Q248.64 1.28 239.42 1.28ZM241.09-26.56L241.09-26.56L241.09-26.56Q240.32-24.83 239.71-22.24L239.71-22.24L239.71-22.24Q239.10-19.65 238.34-15.55L238.34-15.55L238.34-15.55Q237.57-11.46 237.57-6.40L237.57-6.40L237.57-6.40Q237.57-4.74 238.11-3.65L238.11-3.65L238.11-3.65Q238.66-2.56 240.13-2.56L240.13-2.56L240.13-2.56Q241.60-2.56 242.53-3.26L242.53-3.26L242.53-3.26Q243.46-3.97 244.16-5.63L244.16-5.63L244.16-5.63Q245.44-8.58 246.46-14.05L246.46-14.05L246.46-14.05Q247.49-19.52 247.58-21.89L247.58-21.89L247.58-21.89Q247.68-24.26 247.68-26.02L247.68-26.02L247.68-26.02Q247.68-27.78 247.17-28.93L247.17-28.93L247.17-28.93Q246.66-30.08 245.22-30.08L245.22-30.08L245.22-30.08Q243.78-30.08 242.82-29.18L242.82-29.18L242.82-29.18Q241.86-28.29 241.09-26.56ZM279.81-30.34L279.81-30.34L279.81-30.34Q283.26-33.92 290.56-33.92L290.56-33.92L290.56-33.92Q294.59-33.92 296.80-31.78L296.80-31.78L296.80-31.78Q299.01-29.63 299.01-25.70L299.01-25.70L299.01-25.70Q299.01-21.76 296.80-18.98L296.80-18.98L296.80-18.98Q294.59-16.19 290.50-15.04L290.50-15.04L290.50-15.04Q290.82-13.76 291.26-12.42L291.26-12.42L292.16-9.86L292.16-9.86Q293.38-6.59 294.34-5.44L294.34-5.44L294.34-5.44Q295.30-4.29 296.58-3.90L296.58-3.90L296.58-3.90Q295.87-1.28 293.31 0.13L293.31 0.13L293.31 0.13Q291.26 1.28 288.45 1.28L288.45 1.28L288.45 1.28Q280.19 1.28 279.10-11.46L279.10-11.46L279.10-11.46Q278.91-13.25 278.91-15.04L278.91-15.04L278.91-15.04Q282.11-15.94 284.35-18.94L284.35-18.94L284.35-18.94Q286.59-21.95 286.59-25.47L286.59-25.47L286.59-25.47Q286.59-28.99 284.10-28.99L284.10-28.99L284.10-28.99Q282.30-28.99 280.90-27.01L280.90-27.01L280.90-27.01Q279.49-25.02 278.85-21.63L278.85-21.63L274.62 0L261.70 1.28L270.66-44.80L283.52-46.08L282.05-38.46L282.05-38.46Q281.09-33.09 279.81-30.34ZM321.09-22.46L321.09-22.46L321.09-22.46Q321.98-24.83 321.98-26.88L321.98-26.88L321.98-26.88Q321.98-30.66 318.91-30.66L318.91-30.66L318.91-30.66Q317.31-30.66 316.00-29.22L316.00-29.22L316.00-29.22Q314.69-27.78 314.69-25.98L314.69-25.98L314.69-25.98Q314.69-24.70 315.71-23.68L315.71-23.68L315.71-23.68Q317.18-22.27 320.96-19.97L320.96-19.97L320.96-19.97Q324.74-17.66 326.18-15.78L326.18-15.78L326.18-15.78Q327.62-13.89 327.62-11.30L327.62-11.30L327.62-11.30Q327.62-8.70 326.37-6.34L326.37-6.34L326.37-6.34Q325.12-3.97 322.88-2.30L322.88-2.30L322.88-2.30Q318.08 1.28 310.40 1.28L310.40 1.28L310.40 1.28Q306.24 1.28 303.04-0.90L303.04-0.90L303.04-0.90Q299.84-3.01 299.84-5.50L299.84-5.50L299.84-5.50Q299.84-8 301.66-9.47L301.66-9.47L301.66-9.47Q303.49-10.94 306.18-10.94L306.18-10.94L306.18-10.94Q308.86-10.94 310.53-9.92L310.53-9.92L310.53-9.92Q309.70-7.81 309.70-6.40L309.70-6.40L309.70-6.40Q309.70-2.18 313.28-2.18L313.28-2.18L313.28-2.18Q314.82-2.18 315.84-3.14L315.84-3.14L315.84-3.14Q316.86-4.10 316.86-5.76L316.86-5.76L316.86-5.76Q316.86-9.02 311.36-12.48L311.36-12.48L311.36-12.48Q306.88-15.42 305.86-16.58L305.86-16.58L305.86-16.58Q304.13-18.62 304.13-21.18L304.13-21.18L304.13-21.18Q304.13-23.74 305.34-26.18L305.34-26.18L305.34-26.18Q306.56-28.61 308.80-30.34L308.80-30.34L308.80-30.34Q313.47-33.92 321.60-33.92L321.60-33.92L321.60-33.92Q325.76-33.92 328.22-32.26L328.22-32.26L328.22-32.26Q330.69-30.59 330.69-27.78L330.69-27.78L330.69-27.78Q330.69-24.96 328.99-23.36L328.99-23.36L328.99-23.36Q327.30-21.76 324.22-21.76L324.22-21.76L324.22-21.76Q322.11-21.76 321.09-22.46Z" fill="url(#editing-glowing-gradient)"></path></g></g><style>text {
  font-size: 64px;
  font-family: Arial Black;
  dominant-baseline: central;
  text-anchor: middle;
}</style></svg>