<svg width="21" height="21" viewBox="0 0 21 21" fill="none" xmlns="http://www.w3.org/2000/svg">
  <path d="M6.125 3.5C6.125 3.03587 6.30937 2.59075 6.63756 2.26256C6.96575 1.93437 7.41087 1.75 7.875 1.75H13.125C13.5891 1.75 14.0342 1.93437 14.3624 2.26256C14.6906 2.59075 14.875 3.03587 14.875 3.5V5.25H18.375C18.6071 5.25 18.8296 5.34219 18.9937 5.50628C19.1578 5.67038 19.25 5.89293 19.25 6.125C19.25 6.35706 19.1578 6.57962 18.9937 6.74372C18.8296 6.90781 18.6071 7 18.375 7H17.4396L16.681 17.6242C16.6496 18.0658 16.452 18.479 16.1281 18.7806C15.8042 19.0823 15.378 19.25 14.9354 19.25H6.06375C5.62112 19.25 5.19493 19.0823 4.87102 18.7806C4.54712 18.479 4.34955 18.0658 4.31813 17.6242L3.56125 7H2.625C2.39294 7 2.17038 6.90781 2.00628 6.74372C1.84219 6.57962 1.75 6.35706 1.75 6.125C1.75 5.89293 1.84219 5.67038 2.00628 5.50628C2.17038 5.34219 2.39294 5.25 2.625 5.25H6.125V3.5ZM7.875 5.25H13.125V3.5H7.875V5.25ZM5.31475 7L6.06463 17.5H14.9362L15.6861 7H5.31475ZM8.75 8.75C8.98206 8.75 9.20462 8.84219 9.36872 9.00628C9.53281 9.17037 9.625 9.39293 9.625 9.625V14.875C9.625 15.1071 9.53281 15.3296 9.36872 15.4937C9.20462 15.6578 8.98206 15.75 8.75 15.75C8.51794 15.75 8.29538 15.6578 8.13128 15.4937C7.96719 15.3296 7.875 15.1071 7.875 14.875V9.625C7.875 9.39293 7.96719 9.17037 8.13128 9.00628C8.29538 8.84219 8.51794 8.75 8.75 8.75ZM12.25 8.75C12.4821 8.75 12.7046 8.84219 12.8687 9.00628C13.0328 9.17037 13.125 9.39293 13.125 9.625V14.875C13.125 15.1071 13.0328 15.3296 12.8687 15.4937C12.7046 15.6578 12.4821 15.75 12.25 15.75C12.0179 15.75 11.7954 15.6578 11.6313 15.4937C11.4672 15.3296 11.375 15.1071 11.375 14.875V9.625C11.375 9.39293 11.4672 9.17037 11.6313 9.00628C11.7954 8.84219 12.0179 8.75 12.25 8.75Z" fill="#681A1A"/>
</svg>
