<svg width="21" height="21" viewBox="0 0 21 21" fill="none" xmlns="http://www.w3.org/2000/svg">
  <path d="M6.94617 4.6846H14.0539C14.4173 4.6846 14.7 4.40191 14.7 4.03845V2.74614C14.7 1.69614 13.8116 0.807678 12.7616 0.807678H8.23848C7.18848 0.807678 6.30002 1.69614 6.30002 2.74614V4.03845C6.30002 4.40191 6.58271 4.6846 6.94617 4.6846Z" fill="#8C4708"/>
  <path d="M17.6077 2.42303H16.9615C16.7596 2.42303 16.6385 2.54419 16.6385 2.74611V4.03842C16.6385 5.45188 15.4673 6.62303 14.0539 6.62303H6.94617C5.5327 6.62303 4.36155 5.45188 4.36155 4.03842V2.74611C4.36155 2.54419 4.2404 2.42303 4.03847 2.42303H3.39232C2.34232 2.42303 1.45386 3.3115 1.45386 4.3615V18.2538C1.45386 19.3038 2.34232 20.1923 3.39232 20.1923H17.6077C18.6577 20.1923 19.5462 19.3038 19.5462 18.2538V4.3615C19.5462 3.3115 18.6577 2.42303 17.6077 2.42303ZM13.7308 12.2769L8.56155 17.4461L6.30001 18.0923C6.09809 18.1326 5.89617 17.9307 5.93655 17.7288L6.5827 15.5077L11.7519 10.3384C11.8327 10.2576 11.9539 10.2576 12.0346 10.3384L13.6904 12.0346C13.8116 12.075 13.8115 12.1961 13.7308 12.2769ZM15.225 10.7826L14.5789 11.4288C14.4981 11.5096 14.3769 11.5096 14.2962 11.4288L12.6 9.73265C12.5192 9.65188 12.5192 9.53073 12.6 9.44996L13.2462 8.8038C13.5289 8.48073 14.0539 8.48073 14.3365 8.8038L15.1846 9.65188C15.5481 9.97496 15.5481 10.4596 15.225 10.7826Z" fill="#8C4708"/>
</svg>
