<svg width="36" height="37" viewBox="0 0 36 37" fill="none" xmlns="http://www.w3.org/2000/svg">
  <g filter="url(#filter0_d_316_303)">
    <path fill-rule="evenodd" clip-rule="evenodd" d="M8.65639 0.0143987C8.12847 0.0922228 7.71417 0.199192 7.32429 0.35842C7.18436 0.415586 7.04289 0.470912 7.01001 0.481343C6.13536 0.758483 5.06249 1.98413 4.59395 3.24139C4.52241 3.43354 4.5107 3.47015 4.46402 3.64912C4.43717 3.7519 4.40464 3.86654 4.39167 3.90396C4.24904 4.31507 4.1383 5.46116 4.16515 6.2482C4.19723 7.18607 4.19398 9.34592 4.15749 11.3955C4.13938 12.4139 4.111 14.3403 4.09451 15.6764C4.07802 17.0125 4.05027 18.5948 4.03279 19.1929C3.98314 20.8949 3.99125 23.3438 4.04783 23.7518C4.18677 24.754 4.51376 25.5958 5.06159 26.3616C5.19684 26.5507 5.5696 26.9792 5.66745 27.0581C5.70223 27.0861 5.86361 27.2176 6.02607 27.3504C6.18853 27.4832 6.39559 27.6361 6.48614 27.6902C6.57669 27.7443 6.65527 27.8 6.66076 27.8141C6.66626 27.8281 6.68212 27.8395 6.69599 27.8395C6.70987 27.8395 6.81989 27.8913 6.94045 27.9545C7.27599 28.1304 7.38646 28.1792 7.44773 28.1792C7.47864 28.1792 7.50396 28.1946 7.50396 28.2133C7.50396 28.2319 7.53009 28.2472 7.56207 28.2472C7.59397 28.2472 7.62848 28.2625 7.63866 28.2812C7.64884 28.2999 7.68173 28.3152 7.71183 28.3152C7.76634 28.3152 8.03386 28.3994 8.14757 28.4524C8.18046 28.4677 8.33535 28.5058 8.49177 28.537C8.64819 28.5682 8.82335 28.607 8.88093 28.6234C8.93859 28.6396 9.28883 28.66 9.65925 28.6686C10.0297 28.6771 10.582 28.6916 10.8866 28.7009C11.1912 28.7101 11.9388 28.7268 12.548 28.7379C13.1572 28.749 14.0934 28.7737 14.6285 28.7927C15.1635 28.8119 15.9853 28.8332 16.4544 28.8404C18.3041 28.8684 21.2406 28.9251 22.604 28.959C25.7276 29.0367 27.5147 29.004 28.0094 28.86C29.0515 28.5567 29.6548 28.1896 30.2695 27.4845C30.7654 26.9154 31.0999 26.3079 31.3879 25.4527C31.4153 25.3711 31.5032 25.0404 31.5458 24.8582C31.56 24.7974 31.5843 24.6981 31.5998 24.6374C31.6324 24.5098 31.6861 24.1098 31.7264 23.6945C31.7418 23.5357 31.7602 23.0235 31.7673 22.5564C31.7743 22.0892 31.7948 20.9349 31.8127 19.9913C32.0195 9.10488 32.0463 5.84916 31.936 5.04208C31.9041 4.80912 31.7862 4.23285 31.7518 4.14173C31.7376 4.10441 31.6902 3.95919 31.6463 3.81898C31.56 3.54348 31.3224 2.98593 31.2544 2.899C31.2313 2.86955 31.2124 2.83447 31.2124 2.82118C31.2124 2.80778 31.199 2.77843 31.1826 2.75583C31.1661 2.73333 31.0888 2.61614 31.0108 2.49546C30.8218 2.2037 30.3955 1.72571 30.1435 1.52333C30.0317 1.43344 29.9334 1.35019 29.9252 1.33843C29.917 1.32657 29.8901 1.30642 29.8654 1.29354C29.8406 1.28075 29.7733 1.2378 29.7156 1.19802C29.5573 1.0888 29.0343 0.795196 28.9982 0.795196C28.9807 0.795196 28.9431 0.780367 28.9145 0.762164C28.8182 0.700805 28.3101 0.526033 28.0208 0.454652C27.5062 0.32774 27.0608 0.305446 24.0729 0.256666C22.9698 0.238667 21.7642 0.213612 21.3938 0.201033C20.6994 0.17741 18.6872 0.132822 16.0953 0.0836325C15.2803 0.0681904 14.3777 0.048351 14.0896 0.0394539C12.9307 0.00396773 8.85498 -0.0148492 8.65639 0.0143987ZM12.114 2.80563C12.9289 2.82506 14.0334 2.85084 14.5682 2.8628C15.7387 2.88918 15.722 2.87988 15.2224 3.22779C15.0372 3.35674 14.8716 3.46831 14.8544 3.47557C14.8371 3.48294 14.7828 3.52119 14.7336 3.56056C14.6844 3.59993 14.6171 3.64871 14.584 3.66906C14.4968 3.72234 14.0713 4.01482 13.8876 4.14777C13.6868 4.29288 13.6883 4.29953 13.9474 4.41284C14.0668 4.4651 14.1772 4.52104 14.1929 4.53709C14.2085 4.55325 14.2379 4.56644 14.2581 4.56644C14.2783 4.56644 14.3968 4.62003 14.5216 4.68538C14.6463 4.75083 14.7564 4.80431 14.7663 4.80431C14.7838 4.80431 14.8393 4.8307 15.1146 4.97019C15.1926 5.00976 15.2646 5.04208 15.2747 5.04208C15.2847 5.04208 15.3354 5.06304 15.3873 5.08851C15.4392 5.11407 15.5758 5.18147 15.6912 5.23843C15.8064 5.29529 16.0893 5.42885 16.3197 5.5352C16.5502 5.64156 16.7793 5.74863 16.8287 5.77307C16.878 5.79762 17.0397 5.87442 17.1879 5.94365C17.336 6.01289 17.5112 6.09654 17.5771 6.12967C17.6429 6.1627 17.7535 6.21404 17.8228 6.2436C17.892 6.27325 18.0065 6.32674 18.0771 6.36243C18.1479 6.39812 18.3 6.47001 18.4152 6.52227C18.5304 6.57442 18.6376 6.62975 18.6532 6.64509C18.6688 6.66043 18.6988 6.67291 18.7198 6.67291C18.7407 6.67291 18.829 6.70931 18.9158 6.7539C19.0027 6.79839 19.1478 6.86895 19.2384 6.91057C19.329 6.9523 19.4596 7.01519 19.5286 7.05047C19.5977 7.08575 19.6619 7.11459 19.6712 7.11459C19.6804 7.11459 19.7519 7.14701 19.8299 7.18648C20.0001 7.2728 20.1157 7.3271 20.2562 7.38672C20.3139 7.41126 20.3738 7.44409 20.3894 7.45984C20.4051 7.47549 20.435 7.48837 20.456 7.48837C20.4769 7.48837 20.5718 7.52836 20.667 7.57734C20.9424 7.71919 21.0274 7.76019 21.0458 7.76019C21.0553 7.76019 21.1512 7.80601 21.2591 7.86205C21.3668 7.91809 21.4628 7.96401 21.4723 7.96401C21.489 7.96401 21.6406 8.03652 21.7754 8.10912C21.882 8.16649 21.8547 8.24585 21.7001 8.32828C21.6222 8.3698 21.3897 8.49374 21.1837 8.60378C20.9775 8.71382 20.7781 8.81486 20.7404 8.82846C20.6333 8.86712 20.6742 8.91262 20.9156 9.02348C21.0386 9.08003 21.1818 9.14763 21.2337 9.17371C21.2855 9.19979 21.3362 9.22106 21.3462 9.22106C21.3562 9.22106 21.4283 9.25348 21.5063 9.29295C21.723 9.40278 21.8064 9.44144 22.0823 9.55976C22.2222 9.61979 22.3771 9.68872 22.4265 9.71285C22.4759 9.73699 22.5634 9.77605 22.6211 9.79978C22.7528 9.85388 22.867 9.90716 23.0473 9.99858C23.1253 10.0381 23.1974 10.0705 23.2074 10.0705C23.2175 10.0705 23.2749 10.0952 23.335 10.1255C23.5871 10.2523 23.6339 10.2743 23.6512 10.2743C23.6612 10.2743 23.7266 10.3031 23.7963 10.3384C23.8661 10.3736 24.0175 10.4442 24.1328 10.4952C24.248 10.5462 24.3693 10.6002 24.4022 10.6151C25.0572 10.9116 25.2615 11.0055 25.3673 11.0593C25.4371 11.0947 25.5023 11.1237 25.5124 11.1237C25.5224 11.1237 25.5732 11.1453 25.625 11.1717C25.6769 11.1981 25.8127 11.2607 25.9267 11.3111C26.0409 11.3614 26.1553 11.4149 26.1812 11.43C26.207 11.445 26.2956 11.484 26.3779 11.5164C26.4602 11.5488 26.5814 11.6016 26.6473 11.6336C26.7132 11.6657 26.8277 11.7191 26.9018 11.7522C26.9758 11.7854 27.0936 11.841 27.1634 11.8758C27.2332 11.9106 27.3006 11.9396 27.3131 11.9403C27.3256 11.9409 27.3897 11.971 27.4555 12.0071C27.5214 12.0432 27.5848 12.0732 27.5964 12.0739C27.6928 12.0791 28.8097 12.7251 29.1768 12.9879C30.6146 14.0172 30.862 15.1239 29.8643 16.0627C29.5935 16.3175 28.7523 16.8655 28.632 16.8655C28.609 16.8655 28.5773 16.8789 28.5616 16.8953C28.546 16.9116 28.454 16.9581 28.357 16.9984C28.1681 17.0772 28.0412 17.14 27.6651 17.3411C27.5334 17.4116 27.3583 17.5033 27.276 17.545C26.9793 17.6952 26.7356 17.8235 26.6577 17.8707C26.614 17.8972 26.5567 17.9187 26.5304 17.9187C26.5042 17.9187 26.4827 17.9341 26.4827 17.9527C26.4827 17.9714 26.4696 17.9867 26.4536 17.9867C26.4238 17.9867 26.1393 18.1264 26.0035 18.2076C25.9623 18.2324 25.8073 18.3132 25.6593 18.3872C25.4091 18.5124 25.1923 18.6243 24.8212 18.8197C24.6168 18.9274 24.2274 19.131 24.028 19.2344C23.9374 19.2814 23.7372 19.3869 23.583 19.4687C23.4289 19.5505 23.2988 19.6175 23.2938 19.6175C23.2889 19.6175 23.1141 19.7092 22.9055 19.8214C22.6968 19.9335 22.5196 20.0252 22.5118 20.0252C22.5039 20.0252 22.3565 20.1017 22.1841 20.1951C22.0117 20.2885 21.8641 20.3649 21.8561 20.3649C21.8481 20.3649 21.7307 20.4242 21.5952 20.4966C21.4597 20.5691 21.2815 20.6627 21.1992 20.7047C21.0393 20.7862 20.6958 20.9656 20.4507 21.0957C20.3685 21.1394 20.2136 21.2206 20.1065 21.276C19.4721 21.6049 19.3682 21.6597 19.3211 21.6903C19.2925 21.7088 19.2488 21.7239 19.2239 21.7239C19.1989 21.7239 19.1786 21.7393 19.1786 21.758C19.1786 21.7766 19.163 21.7919 19.1441 21.7919C19.125 21.7919 19.0274 21.8359 18.927 21.8897C18.8266 21.9435 18.6771 22.0223 18.5948 22.0649C18.5125 22.1074 18.3441 22.1951 18.2207 22.2596C18.0971 22.3242 17.9422 22.4046 17.8764 22.4383C17.4266 22.668 17.1424 22.8161 16.7388 23.0311C16.6236 23.0925 16.4619 23.1769 16.3797 23.2189C16.1917 23.3147 15.8187 23.5092 15.6612 23.5936C15.1661 23.8588 14.8859 24.0004 14.8556 24.0004C14.836 24.0004 14.8073 24.0143 14.7916 24.0315C14.7676 24.0576 14.4858 24.2086 13.8352 24.5436C13.7693 24.5776 13.5705 24.6832 13.3934 24.7784C13.2163 24.8737 13.0655 24.9516 13.0584 24.9516C13.0513 24.9516 12.9268 25.0144 12.7817 25.0912C12.6367 25.1679 12.4439 25.2694 12.3534 25.3165C12.2628 25.3636 12.0901 25.4537 11.9695 25.5167C11.849 25.5797 11.7444 25.6311 11.7372 25.6311C11.7259 25.6311 11.5818 25.7011 11.3805 25.8045C11.2531 25.87 10.6605 26.0751 10.5008 26.109C9.66988 26.2855 9.37335 26.2852 8.72712 26.1071C8.12739 25.942 7.44665 25.1633 7.14967 24.3029C7.12777 24.2393 7.09876 24.1566 7.08533 24.1192C7.0346 23.978 6.99676 23.8404 6.94991 23.6266C6.92323 23.5051 6.88909 23.3522 6.87404 23.2869C6.70924 22.5699 6.6495 20.9125 6.74744 19.7739C6.7788 19.4092 6.79466 19.4019 7.14651 19.5913C7.69317 19.8854 8.20334 20.115 8.56664 20.2303C8.61602 20.246 8.78443 20.2996 8.94085 20.3495C9.09718 20.3994 9.2791 20.452 9.34496 20.4664C10.3959 20.696 10.5879 20.7218 11.5003 20.7568C12.0251 20.777 12.8587 20.7222 13.2813 20.64C13.3719 20.6223 13.5471 20.5914 13.6705 20.5713C14.2706 20.4734 15.173 20.2113 15.5414 20.0281C15.5744 20.0116 15.6754 19.9645 15.766 19.9231C16.1278 19.7579 16.4391 19.5671 16.6939 19.3542C16.768 19.2924 16.8691 19.2088 16.9185 19.1686C17.4075 18.77 17.956 17.8595 18.0708 17.2563C18.0851 17.1815 18.1179 17.0133 18.1437 16.8825C18.207 16.5623 18.2069 15.6256 18.1434 15.2517C18.118 15.1022 18.0857 14.9111 18.0715 14.827C18.0151 14.4941 17.8209 13.787 17.7098 13.5108C17.678 13.4316 17.6518 13.3551 17.6518 13.3408C17.6518 13.2204 16.8997 11.6672 16.8414 11.6672C16.827 11.6672 16.7442 11.7038 16.6574 11.7483C16.4626 11.8483 16.2295 11.9654 16.1103 12.0232C16.0609 12.0473 15.9396 12.1086 15.8408 12.1598C15.742 12.2109 15.5063 12.3294 15.317 12.4232C15.1276 12.5169 14.8929 12.6374 14.7953 12.691C14.6977 12.7446 14.607 12.7885 14.5936 12.7885C14.5804 12.7885 14.4263 12.8649 14.2513 12.9584C14.0763 13.0518 13.9211 13.1282 13.9062 13.1282C13.8914 13.1282 13.8558 13.1435 13.8273 13.162C13.7475 13.2137 13.2503 13.4679 13.229 13.4679C13.2186 13.4679 13.1285 13.5127 13.0287 13.5674C12.9289 13.6222 12.7194 13.7309 12.5629 13.809C11.823 14.1789 11.8695 14.1144 12.127 14.4151C12.7818 15.1799 13.3334 16.2579 13.5111 17.1204C13.5735 17.4234 13.5988 18.2908 13.5507 18.4793C13.3838 19.1331 13.3216 19.29 13.124 19.556C12.807 19.9827 12.2248 20.0658 11.8773 19.7341C11.7054 19.5698 11.7051 19.5587 11.8597 19.1588C11.9004 19.0537 11.9584 18.8429 12.0281 18.5473C12.0821 18.3178 12.0819 17.5418 12.0277 17.3411C11.9349 16.9977 11.8919 16.8715 11.7906 16.6453C11.7322 16.5149 11.6733 16.3926 11.6598 16.3735C11.6463 16.3545 11.551 16.2173 11.448 16.0687C11.0475 15.4908 10.2845 14.8758 9.46471 14.4704C9.39885 14.4379 9.30171 14.3897 9.24891 14.3634C9.12421 14.3013 9.09835 14.2497 9.16836 14.2025C9.28045 14.1268 9.77548 13.8287 10.3121 13.5138C10.6135 13.3368 10.9233 13.1507 11.0005 13.1002C11.0778 13.0496 11.2488 12.9473 11.3805 12.8729C11.5122 12.7984 11.6268 12.7299 11.635 12.7206C11.6432 12.7112 11.7443 12.6489 11.8595 12.5821C11.9747 12.5154 12.2273 12.3663 12.4208 12.2509C12.6142 12.1355 12.9307 11.9475 13.1242 11.833C13.3177 11.7186 13.5635 11.5714 13.6705 11.506C13.7775 11.4406 14.0133 11.2991 14.1944 11.1916C14.3755 11.0841 14.6113 10.9429 14.7182 10.8778C14.8253 10.8125 15.1149 10.6404 15.3618 10.4951C15.6088 10.3499 15.8244 10.22 15.8408 10.2065C16.037 10.0459 16.9424 9.56385 16.9916 9.59381C17.0388 9.62245 17.3824 10.1472 17.3824 10.1904C17.3824 10.1974 17.4413 10.2993 17.5131 10.4171C17.8394 10.9517 18.5307 12.3772 18.696 12.8564C18.7185 12.9218 18.7555 13.0197 18.7781 13.074C18.8008 13.1282 18.8193 13.1858 18.8193 13.2017C18.8193 13.2178 18.845 13.2957 18.8764 13.3749C19.0126 13.7192 19.1359 14.2058 19.266 14.9119C19.495 16.1565 19.3244 17.5791 18.8259 18.5812C18.5032 19.2299 17.4313 20.5008 17.2069 20.5008C17.191 20.5008 17.1734 20.5126 17.1679 20.5269C17.142 20.5946 16.344 21.0992 16.1031 21.2002C16.0247 21.2332 15.9471 21.2705 15.9306 21.2833C15.9142 21.2961 15.7997 21.3482 15.6761 21.399C15.5527 21.45 15.4247 21.5051 15.3918 21.5216C15.3589 21.538 15.2579 21.5759 15.1673 21.6056C15.0768 21.6355 14.9151 21.6895 14.8081 21.7257C14.5655 21.8078 14.1821 21.8938 14.0592 21.8938C14.0082 21.8938 13.91 21.908 13.841 21.9254C13.1722 22.0934 11.0622 22.1234 10.2385 21.9765C10.0763 21.9476 9.85603 21.91 9.74908 21.893C9.55139 21.8614 9.26243 21.7917 9.04555 21.7233C8.97977 21.7025 8.87867 21.6735 8.8211 21.6588C8.62918 21.6099 8.44753 21.542 8.38788 21.4969C8.22533 21.3739 8.22236 21.3867 8.22236 22.214C8.22236 22.6331 8.23686 23.0573 8.25461 23.1569C8.52952 24.7016 9.08573 25.1099 10.3477 24.6935C10.3889 24.6799 10.6246 24.5523 10.8716 24.4098C11.2804 24.1741 11.5622 24.0211 12.114 23.7353C12.3051 23.6363 12.5672 23.4982 13.0119 23.2624C13.1355 23.197 13.2904 23.1157 13.3562 23.0818C13.4769 23.0197 14.0575 22.7133 14.2243 22.6236C14.5264 22.4612 15.0246 22.197 15.1523 22.1316C15.3143 22.0484 15.533 21.9343 15.8857 21.7489C16.0092 21.6841 16.1843 21.5926 16.2749 21.5458C16.3654 21.499 16.5742 21.3884 16.7388 21.3001C17.0424 21.1375 17.1819 21.0637 17.5321 20.881C17.7236 20.7809 18.1213 20.5713 18.4152 20.4154C18.4976 20.3718 18.639 20.2984 18.7295 20.2522C18.82 20.2062 19.0154 20.104 19.1636 20.0252C19.3117 19.9465 19.5071 19.8435 19.5976 19.7964C19.6882 19.7494 19.8903 19.6428 20.0466 19.5597C20.2031 19.4764 20.4052 19.3695 20.4957 19.3219C20.5863 19.2743 20.7412 19.1926 20.8399 19.1402C20.9388 19.0879 21.1004 19.0044 21.1992 18.9546C21.2979 18.9048 21.4865 18.8056 21.6182 18.7341C21.75 18.6626 22.0396 18.5092 22.2618 18.393C22.4841 18.277 22.8325 18.0922 23.036 17.9825C23.2396 17.8726 23.412 17.7828 23.4192 17.7828C23.4265 17.7828 23.5865 17.6988 23.7749 17.596C23.9633 17.4932 24.1226 17.4091 24.129 17.4091C24.1393 17.4091 24.3935 17.2754 25.0009 16.9503C25.5559 16.6532 25.8615 16.4918 25.869 16.4918C25.8736 16.4918 26.0236 16.4136 26.2025 16.3181C26.3812 16.2225 26.6277 16.0917 26.7503 16.0274C27.1472 15.8191 27.6502 15.3204 27.6502 15.1351C27.6502 15.1151 27.6603 15.0988 27.6728 15.0988C27.7508 15.0988 27.7914 14.679 27.732 14.4857C27.6394 14.1842 27.2808 13.8139 26.9244 13.6516C26.8462 13.616 26.7822 13.5754 26.7822 13.5614C26.7821 13.5474 26.7579 13.5359 26.7283 13.5359C26.6852 13.5359 26.2954 13.3671 25.869 13.1638C25.8361 13.1481 25.7351 13.1015 25.6445 13.0602C25.554 13.019 25.4395 12.9658 25.3901 12.942C25.3407 12.9182 25.2329 12.8716 25.1506 12.8386C25.0682 12.8056 24.947 12.7517 24.8812 12.7187C24.8153 12.6859 24.62 12.5956 24.4471 12.5182C24.2742 12.4407 24.0992 12.3608 24.058 12.3406C23.9696 12.2971 23.9009 12.2669 23.7586 12.2093C23.701 12.1858 23.6134 12.1479 23.564 12.1249C23.5146 12.102 23.4001 12.0491 23.3096 12.0076C23.219 11.9661 23.1045 11.9128 23.0551 11.8893C23.0057 11.8656 22.9047 11.8193 22.8306 11.7862C22.7565 11.7531 22.6555 11.7067 22.6061 11.6831C22.5567 11.6595 22.3682 11.5755 22.1871 11.4966C22.0059 11.4177 21.8106 11.3305 21.7529 11.3029C21.6954 11.2753 21.6213 11.2397 21.5883 11.2238C21.3752 11.1214 20.9222 10.9199 20.905 10.9199C20.8935 10.9199 20.8271 10.8914 20.7573 10.8566C20.6875 10.8217 20.5698 10.7662 20.4957 10.7331C20.4216 10.6999 20.3205 10.6535 20.2712 10.63C20.2218 10.6064 20.1073 10.5534 20.0167 10.5122C19.9262 10.4709 19.8252 10.4243 19.7923 10.4087C19.7593 10.3929 19.5707 10.3087 19.3731 10.2213C19.1756 10.134 18.9735 10.0427 18.9241 10.0184C18.8747 9.99418 18.6592 9.89591 18.4451 9.79998C18.2311 9.70395 18.029 9.61243 17.9961 9.59647C17.9632 9.58052 17.8598 9.53409 17.7664 9.49329C17.512 9.38223 17.521 9.35165 17.8702 9.13945C18.0382 9.03729 18.2768 8.89145 18.4002 8.81547C18.5237 8.73939 18.6888 8.64295 18.767 8.60102C18.9937 8.47973 18.9789 8.4646 18.3404 8.16578C18.2499 8.12344 18.1629 8.07599 18.1473 8.06034C18.1316 8.0447 18.1013 8.03191 18.0798 8.03191C18.0583 8.03191 17.9709 7.99377 17.8856 7.94703C17.8002 7.9003 17.7193 7.86205 17.7058 7.86205C17.6922 7.86205 17.5835 7.81082 17.4644 7.74813C17.3452 7.68544 17.1265 7.57591 16.9783 7.50463C16.8302 7.43346 16.6483 7.3454 16.5742 7.309C16.3512 7.19937 16.1736 7.11255 16.1103 7.08228C16.0263 7.04209 15.8644 6.96303 15.7061 6.8848C15.632 6.84829 15.4501 6.76014 15.302 6.68917C15.1538 6.61809 14.9614 6.52421 14.8746 6.48055C14.7876 6.43688 14.7105 6.40108 14.7032 6.40108C14.6959 6.40108 14.6121 6.3611 14.517 6.31211C14.4219 6.26313 14.3037 6.20371 14.2543 6.18009C14.2049 6.15647 14.0163 6.06576 13.8352 5.97852C13.6541 5.89139 13.4789 5.80702 13.4461 5.79128C13.2855 5.71427 13.1357 5.6388 13.0288 5.58122C12.964 5.54635 12.9009 5.51782 12.8887 5.51782C12.8765 5.51782 12.7773 5.47098 12.6683 5.41371C12.4019 5.27371 12.4356 5.25223 11.7263 6.01329C11.5855 6.16444 11.4029 6.35547 11.3207 6.4379C11.2383 6.52033 11.0901 6.67546 10.9913 6.78284C10.71 7.08841 10.7277 7.10263 10.4077 6.3162C10.3392 6.14798 10.2519 5.93394 10.2136 5.84057C9.89676 5.06713 9.77629 4.77107 9.51535 4.12476C9.46633 4.00337 9.36938 3.76632 9.3 3.59819C8.9668 2.7908 8.96193 2.77669 9.00969 2.75102C9.02942 2.74039 9.40254 2.74039 9.83882 2.75102C10.2752 2.76156 11.299 2.7862 12.114 2.80563ZM15.4488 14.3122C15.5196 14.4396 15.5272 14.4436 15.74 14.4661C16.0665 14.5005 16.1077 14.5429 16.0849 14.8204C16.0614 15.106 16.0223 15.1555 15.8663 15.0971C15.4988 14.9593 15.0962 15.15 15.2767 15.3764C15.3157 15.4254 15.3713 15.4387 15.5386 15.4391C15.8916 15.4401 16.1525 15.5191 16.2704 15.6606C16.5846 16.0378 16.6001 16.4572 16.3125 16.8043C16.2519 16.8777 16.2399 16.9192 16.2531 17.0111C16.2751 17.1651 16.2579 17.188 16.0561 17.2738C15.8584 17.3576 15.817 17.3495 15.7608 17.216C15.7242 17.1289 15.703 17.1187 15.5263 17.1028C15.2151 17.0746 15.1517 17.0223 15.1551 16.7966C15.1588 16.5382 15.2079 16.4097 15.2848 16.4564C15.4501 16.5569 15.9559 16.4796 15.9926 16.3482C16.0561 16.1211 15.9256 16.0472 15.4816 16.0586C14.7656 16.077 14.4363 15.2927 14.9189 14.7183C14.9835 14.6414 14.9933 14.6045 14.9798 14.4903C14.9612 14.3319 14.9839 14.3016 15.1715 14.2347C15.3616 14.1669 15.3691 14.1691 15.4488 14.3122Z" fill="#1A5DAD"/>
  </g>
  <defs>
    <filter id="filter0_d_316_303" x="0" y="0" width="36" height="37" filterUnits="userSpaceOnUse" color-interpolation-filters="sRGB">
      <feFlood flood-opacity="0" result="BackgroundImageFix"/>
      <feColorMatrix in="SourceAlpha" type="matrix" values="0 0 0 0 0 0 0 0 0 0 0 0 0 0 0 0 0 0 127 0" result="hardAlpha"/>
      <feOffset dy="4"/>
      <feGaussianBlur stdDeviation="2"/>
      <feComposite in2="hardAlpha" operator="out"/>
      <feColorMatrix type="matrix" values="0 0 0 0 0 0 0 0 0 0 0 0 0 0 0 0 0 0 0.25 0"/>
      <feBlend mode="normal" in2="BackgroundImageFix" result="effect1_dropShadow_316_303"/>
      <feBlend mode="normal" in="SourceGraphic" in2="effect1_dropShadow_316_303" result="shape"/>
    </filter>
  </defs>
</svg>

