<svg width="50" height="50" viewBox="0 0 50 44" fill="none" xmlns="http://www.w3.org/2000/svg">
  <g filter="url(#filter0_d_157_89)">
    <path fill-rule="evenodd" clip-rule="evenodd" d="M10.4597 0.0178184C9.72736 0.114125 9.15261 0.2465 8.61173 0.443543C8.41761 0.514286 8.22136 0.582752 8.17573 0.59566C6.96236 0.938619 5.47398 2.45536 4.82398 4.0112C4.72473 4.249 4.70848 4.2943 4.64373 4.51577C4.60648 4.64296 4.56136 4.78482 4.54336 4.83114C4.34548 5.33988 4.19186 6.75817 4.22911 7.73212C4.27361 8.89274 4.26911 11.5655 4.21848 14.1019C4.19336 15.3621 4.15398 17.746 4.13111 19.3994C4.10823 21.0528 4.06973 23.011 4.04548 23.7511C3.97661 25.8573 3.98786 28.8879 4.06636 29.3927C4.25911 30.6329 4.71273 31.6747 5.47273 32.6223C5.66036 32.8563 6.17748 33.3866 6.31323 33.4843C6.36148 33.519 6.58536 33.6817 6.81073 33.846C7.03611 34.0104 7.32336 34.1996 7.44898 34.2665C7.57461 34.3335 7.68361 34.4024 7.69123 34.4198C7.69886 34.4371 7.72086 34.4513 7.74011 34.4513C7.75936 34.4513 7.91198 34.5153 8.07923 34.5935C8.54473 34.8112 8.69798 34.8717 8.78298 34.8717C8.82586 34.8717 8.86098 34.8907 8.86098 34.9138C8.86098 34.9369 8.89723 34.9558 8.94161 34.9558C8.98586 34.9558 9.03373 34.9747 9.04786 34.9979C9.06198 35.021 9.10761 35.0399 9.14936 35.0399C9.22498 35.0399 9.59611 35.1442 9.75386 35.2097C9.79948 35.2287 10.0144 35.2758 10.2314 35.3144C10.4484 35.353 10.6914 35.4011 10.7712 35.4213C10.8512 35.4414 11.3371 35.4666 11.851 35.4772C12.3649 35.4878 13.1311 35.5057 13.5536 35.5172C13.9762 35.5286 15.0134 35.5493 15.8585 35.5631C16.7036 35.5767 18.0024 35.6073 18.7447 35.6309C19.487 35.6546 20.627 35.681 21.2779 35.6899C23.8439 35.7245 27.9176 35.7946 29.809 35.8367C34.1424 35.9328 36.6216 35.8923 37.3079 35.7142C38.7535 35.3388 39.5905 34.8845 40.4432 34.0119C41.1312 33.3078 41.5952 32.5559 41.9947 31.4977C42.0329 31.3967 42.1547 30.9874 42.2139 30.7619C42.2335 30.6867 42.2672 30.5638 42.2887 30.4887C42.334 30.3307 42.4085 29.8358 42.4644 29.3218C42.4857 29.1253 42.5112 28.4915 42.5211 27.9134C42.5309 27.3353 42.5592 25.9068 42.5841 24.7391C42.871 11.2673 42.9082 7.23831 42.7551 6.23955C42.7109 5.95126 42.5474 5.23814 42.4996 5.12538C42.48 5.07919 42.4141 4.89948 42.3532 4.72598C42.2335 4.38504 41.904 3.69507 41.8096 3.5875C41.7775 3.55106 41.7514 3.50765 41.7514 3.4912C41.7514 3.47462 41.7327 3.4383 41.71 3.41033C41.6871 3.38249 41.5799 3.23746 41.4716 3.08812C41.2095 2.72707 40.6181 2.13556 40.2685 1.88511C40.1134 1.77387 39.977 1.67086 39.9656 1.6563C39.9542 1.64162 39.9169 1.61669 39.8826 1.60075C39.8482 1.58493 39.7549 1.53177 39.6749 1.48254C39.4552 1.34739 38.7297 0.984051 38.6796 0.984051C38.6554 0.984051 38.6031 0.965702 38.5635 0.943175C38.4299 0.867243 37.725 0.650964 37.3236 0.56263C36.6097 0.405577 35.9919 0.377989 31.8469 0.317623C30.3165 0.295349 28.644 0.264344 28.1301 0.248778C27.1669 0.219544 24.3754 0.164367 20.7796 0.103495C19.649 0.0843853 18.3969 0.0598341 17.9971 0.048824C16.3895 0.00491004 10.7352 -0.0183758 10.4597 0.0178184ZM15.2564 3.47196C16.3869 3.496 17.9191 3.5279 18.6611 3.5427C20.2849 3.57535 20.2617 3.56384 19.5686 3.99437C19.3117 4.15395 19.082 4.29202 19.0581 4.30101C19.0341 4.31012 18.9589 4.35745 18.8906 4.40618C18.8224 4.4549 18.729 4.51526 18.683 4.54045C18.5621 4.60638 17.9717 4.96832 17.7169 5.13284C17.4384 5.31242 17.4405 5.32065 17.7999 5.46087C17.9655 5.52554 18.1187 5.59476 18.1405 5.61463C18.1621 5.63463 18.2029 5.65095 18.2309 5.65095C18.2589 5.65095 18.4234 5.71727 18.5965 5.79813C18.7695 5.87913 18.9222 5.94531 18.9359 5.94531C18.9602 5.94531 19.0372 5.97797 19.4191 6.15058C19.5274 6.19956 19.6272 6.23955 19.6412 6.23955C19.6551 6.23955 19.7254 6.26549 19.7974 6.29701C19.8694 6.32864 20.059 6.41204 20.219 6.48253C20.3789 6.5529 20.7712 6.71817 21.091 6.84979C21.4107 6.98141 21.7285 7.11391 21.797 7.14415C21.8655 7.17452 22.0897 7.26957 22.2954 7.35524C22.5009 7.44092 22.7439 7.54444 22.8352 7.58544C22.9266 7.62632 23.08 7.68985 23.1761 7.72642C23.2721 7.76312 23.431 7.82931 23.529 7.87348C23.6271 7.91764 23.8381 8.00661 23.998 8.07128C24.1579 8.13582 24.3065 8.20429 24.3281 8.22327C24.3499 8.24225 24.3914 8.25769 24.4205 8.25769C24.4495 8.25769 24.572 8.30275 24.6925 8.35792C24.813 8.41298 25.0144 8.5003 25.14 8.5518C25.2656 8.60344 25.4469 8.68127 25.5426 8.72493C25.6385 8.76859 25.7275 8.80428 25.7404 8.80428C25.7532 8.80428 25.8524 8.84439 25.9606 8.89324C26.1967 9.00006 26.3571 9.06725 26.552 9.14104C26.632 9.17141 26.7151 9.21203 26.7367 9.23152C26.7585 9.25088 26.8 9.26683 26.8291 9.26683C26.8581 9.26683 26.9899 9.31631 27.1219 9.37693C27.504 9.55246 27.6219 9.60321 27.6474 9.60321C27.6605 9.60321 27.7936 9.6599 27.9432 9.72925C28.0927 9.7986 28.2259 9.85543 28.239 9.85543C28.2622 9.85543 28.4725 9.94515 28.6595 10.035C28.8075 10.106 28.7696 10.2042 28.5551 10.3062C28.447 10.3576 28.1245 10.511 27.8386 10.6471C27.5526 10.7833 27.276 10.9083 27.2237 10.9252C27.0751 10.973 27.1319 11.0293 27.4667 11.1665C27.6374 11.2365 27.836 11.3202 27.908 11.3524C27.9799 11.3847 28.0502 11.411 28.0641 11.411C28.078 11.411 28.178 11.4511 28.2862 11.5C28.5869 11.6359 28.7025 11.6837 29.0852 11.8302C29.2794 11.9044 29.4942 11.9897 29.5627 12.0196C29.6314 12.0495 29.7527 12.0978 29.8327 12.1272C30.0155 12.1941 30.1739 12.2601 30.424 12.3732C30.5322 12.4221 30.6322 12.4622 30.6461 12.4622C30.6601 12.4622 30.7397 12.4928 30.8231 12.5303C31.1729 12.6872 31.2377 12.7144 31.2617 12.7144C31.2757 12.7144 31.3664 12.7501 31.4631 12.7937C31.56 12.8373 31.77 12.9246 31.9299 12.9877C32.0897 13.0509 32.258 13.1177 32.3036 13.1362C33.2124 13.5031 33.4957 13.6192 33.6425 13.6858C33.7394 13.7296 33.8299 13.7655 33.8439 13.7655C33.8577 13.7655 33.9281 13.7922 34 13.8249C34.072 13.8575 34.2604 13.9351 34.4186 13.9974C34.577 14.0597 34.7357 14.1258 34.7716 14.1446C34.8075 14.1632 34.9304 14.2114 35.0445 14.2515C35.1587 14.2916 35.3269 14.3569 35.4182 14.3965C35.5096 14.4363 35.6685 14.5023 35.7712 14.5433C35.874 14.5843 36.0374 14.6532 36.1342 14.6962C36.231 14.7394 36.3245 14.7752 36.3419 14.7761C36.3592 14.7768 36.4481 14.814 36.5395 14.8587C36.6309 14.9034 36.7189 14.9406 36.7349 14.9413C36.8686 14.9478 38.4181 15.7472 38.9274 16.0725C40.922 17.3462 41.2652 18.7158 39.8811 19.8776C39.5055 20.1928 38.3385 20.871 38.1716 20.871C38.1396 20.871 38.0957 20.8876 38.074 20.9078C38.0522 20.9281 37.9246 20.9855 37.7901 21.0355C37.528 21.133 37.352 21.2107 36.8302 21.4596C36.6475 21.5468 36.4046 21.6603 36.2904 21.7118C35.8789 21.8977 35.5407 22.0565 35.4326 22.1149C35.372 22.1477 35.2926 22.1744 35.2561 22.1744C35.2197 22.1744 35.1899 22.1933 35.1899 22.2164C35.1899 22.2395 35.1717 22.2585 35.1495 22.2585C35.1082 22.2585 34.7135 22.4314 34.5251 22.5319C34.468 22.5625 34.253 22.6625 34.0476 22.7541C33.7005 22.909 33.3997 23.0475 32.885 23.2893C32.6014 23.4226 32.0611 23.6745 31.7845 23.8025C31.6589 23.8607 31.3811 23.9912 31.1672 24.0924C30.9534 24.1936 30.7729 24.2765 30.766 24.2765C30.7592 24.2765 30.5167 24.3901 30.2272 24.5289C29.9377 24.6676 29.692 24.7811 29.6811 24.7811C29.6702 24.7811 29.4657 24.8758 29.2265 24.9913C28.9874 25.107 28.7826 25.2015 28.7715 25.2015C28.7604 25.2015 28.5975 25.2749 28.4095 25.3645C28.2216 25.4541 27.9744 25.57 27.8601 25.6219C27.6384 25.7228 27.1619 25.9449 26.8219 26.1059C26.7077 26.1599 26.4929 26.2604 26.3444 26.329C25.4642 26.736 25.3201 26.8038 25.2547 26.8416C25.2151 26.8645 25.1544 26.8833 25.1199 26.8833C25.0852 26.8833 25.057 26.9023 25.057 26.9254C25.057 26.9485 25.0354 26.9674 25.0091 26.9674C24.9827 26.9674 24.8472 27.0219 24.708 27.0884C24.5687 27.155 24.3614 27.2526 24.2471 27.3052C24.133 27.3579 23.8994 27.4663 23.7281 27.5462C23.5567 27.6261 23.3419 27.7256 23.2505 27.7673C22.6265 28.0516 22.2322 28.2349 21.6724 28.5009C21.5125 28.5768 21.2882 28.6813 21.1741 28.7332C20.9134 28.8518 20.3959 29.0925 20.1774 29.1969C19.4906 29.5252 19.1019 29.7004 19.0597 29.7004C19.0326 29.7004 18.9927 29.7176 18.971 29.7388C18.9377 29.7712 18.5467 29.958 17.6442 30.3726C17.5529 30.4146 17.277 30.5453 17.0314 30.6632C16.7856 30.7811 16.5765 30.8776 16.5666 30.8776C16.5567 30.8776 16.384 30.9553 16.1827 31.0503C15.9816 31.1452 15.7141 31.2708 15.5885 31.3291C15.4629 31.3873 15.2232 31.4988 15.056 31.5768C14.8887 31.6547 14.7437 31.7184 14.7337 31.7184C14.718 31.7184 14.5181 31.8051 14.2389 31.933C14.0621 32.014 13.24 32.2679 13.0185 32.3097C11.8657 32.5282 11.4544 32.5278 10.5579 32.3075C9.72586 32.1031 8.78148 31.1395 8.36948 30.0747C8.33911 29.996 8.29886 29.8937 8.28023 29.8474C8.20986 29.6726 8.15736 29.5024 8.09236 29.2378C8.05536 29.0875 8.00798 28.8983 7.98711 28.8174C7.75848 27.9301 7.67561 25.8791 7.81148 24.4702C7.85498 24.0187 7.87698 24.0098 8.36511 24.2441C9.12348 24.6081 9.83123 24.8922 10.3352 25.035C10.4037 25.0543 10.6374 25.1206 10.8544 25.1824C11.0712 25.2442 11.3236 25.3092 11.415 25.3271C12.873 25.6112 13.1394 25.6432 14.405 25.6865C15.1331 25.7114 16.2895 25.6437 16.8759 25.5419C17.0015 25.52 17.2445 25.4818 17.4157 25.4569C18.2482 25.3358 19.5001 25.0114 20.0112 24.7846C20.057 24.7643 20.1971 24.7059 20.3227 24.6548C20.8247 24.4503 21.2566 24.2141 21.6101 23.9508C21.7129 23.8742 21.8531 23.7708 21.9216 23.7211C22.6 23.2278 23.361 22.1011 23.5202 21.3546C23.54 21.262 23.5855 21.0539 23.6214 20.892C23.7091 20.4958 23.709 19.3367 23.621 18.8739C23.5857 18.689 23.5409 18.4524 23.5211 18.3484C23.443 17.9364 23.1735 17.0614 23.0194 16.7195C22.9752 16.6216 22.939 16.5269 22.939 16.5092C22.939 16.3601 21.8955 14.4382 21.8146 14.4382C21.7947 14.4382 21.6799 14.4834 21.5594 14.5385C21.2892 14.6622 20.9657 14.8071 20.8004 14.8787C20.7319 14.9084 20.5636 14.9844 20.4266 15.0477C20.2895 15.1109 19.9625 15.2576 19.6999 15.3737C19.4371 15.4896 19.1115 15.6388 18.9761 15.7051C18.8407 15.7714 18.7149 15.8257 18.6964 15.8257C18.678 15.8257 18.4642 15.9202 18.2215 16.0359C17.9787 16.1516 17.7634 16.2461 17.7427 16.2461C17.7222 16.2461 17.6729 16.265 17.6332 16.2879C17.5225 16.3519 16.8329 16.6665 16.8032 16.6665C16.7889 16.6665 16.6639 16.7219 16.5254 16.7897C16.387 16.8574 16.0962 16.9919 15.8792 17.0886C14.8527 17.5463 14.9172 17.4665 15.2745 17.8387C16.1829 18.785 16.9481 20.1191 17.1946 21.1864C17.2812 21.5613 17.3162 22.6348 17.2495 22.868C17.018 23.6772 16.9317 23.8713 16.6576 24.2005C16.2179 24.7285 15.4101 24.8313 14.9281 24.4208C14.6896 24.2176 14.6891 24.2038 14.9036 23.7089C14.9601 23.5788 15.0406 23.318 15.1372 22.9522C15.2122 22.6682 15.2119 21.7079 15.1367 21.4596C15.008 21.0346 14.9484 20.8785 14.8077 20.5985C14.7267 20.4372 14.645 20.2858 14.6264 20.2621C14.6076 20.2386 14.4754 20.0689 14.3325 19.8849C13.7769 19.1697 12.7184 18.4088 11.5811 17.9071C11.4897 17.8669 11.355 17.8071 11.2817 17.7746C11.1087 17.6978 11.0729 17.6339 11.17 17.5756C11.3255 17.4819 12.0122 17.113 12.7566 16.7232C13.1749 16.5043 13.6046 16.2739 13.7117 16.2114C13.819 16.1488 14.0561 16.0222 14.2389 15.9301C14.4216 15.838 14.5805 15.7532 14.5919 15.7417C14.6032 15.73 14.7435 15.653 14.9034 15.5703C15.0632 15.4878 15.4136 15.3033 15.682 15.1604C15.9504 15.0177 16.3895 14.7849 16.6579 14.6433C16.9262 14.5017 17.2674 14.3196 17.4157 14.2386C17.5642 14.1577 17.8912 13.9826 18.1425 13.8496C18.3937 13.7166 18.7209 13.5418 18.8692 13.4612C19.0177 13.3804 19.4195 13.1674 19.7621 12.9876C20.1047 12.8079 20.4037 12.6472 20.4266 12.6305C20.6987 12.4318 21.9547 11.8352 22.0231 11.8723C22.0885 11.9077 22.5652 12.5571 22.5652 12.6106C22.5652 12.6192 22.6469 12.7454 22.7465 12.8911C23.1992 13.5527 24.1582 15.3167 24.3875 15.9097C24.4187 15.9907 24.4701 16.1118 24.5015 16.179C24.533 16.2461 24.5586 16.3174 24.5586 16.3371C24.5586 16.357 24.5942 16.4534 24.6377 16.5514C24.8267 16.9775 24.9979 17.5796 25.1782 18.4534C25.496 19.9936 25.2594 21.7541 24.5677 22.9942C24.1201 23.7969 22.633 25.3697 22.3217 25.3697C22.2996 25.3697 22.2752 25.3843 22.2676 25.402C22.2317 25.4858 21.1246 26.1102 20.7905 26.2352C20.6816 26.2759 20.574 26.3221 20.5511 26.338C20.5284 26.3538 20.3695 26.4183 20.1981 26.4812C20.0269 26.5442 19.8494 26.6125 19.8036 26.6328C19.758 26.6532 19.6179 26.7 19.4922 26.7369C19.3666 26.7738 19.1424 26.8406 18.9939 26.8854C18.6574 26.9871 18.1255 27.0935 17.955 27.0935C17.8842 27.0935 17.748 27.1111 17.6522 27.1326C16.7245 27.3405 13.7972 27.3776 12.6546 27.1959C12.4296 27.1601 12.124 27.1135 11.9756 27.0925C11.7014 27.0534 11.3005 26.9672 10.9996 26.8825C10.9084 26.8567 10.7681 26.8209 10.6882 26.8027C10.422 26.7422 10.17 26.6581 10.0872 26.6023C9.86173 26.4501 9.85761 26.4659 9.85761 27.4897C9.85761 28.0083 9.87773 28.5333 9.90236 28.6565C10.2837 30.5681 11.0554 31.0735 12.8061 30.5581C12.8632 30.5413 13.1902 30.3834 13.5329 30.2071C14.1 29.9154 14.491 29.726 15.2564 29.3723C15.5215 29.2498 15.8851 29.079 16.5021 28.7871C16.6735 28.7062 16.8884 28.6055 16.9797 28.5637C17.1471 28.4868 17.9526 28.1076 18.184 27.9966C18.6031 27.7956 19.2942 27.4687 19.4714 27.3877C19.6961 27.2848 19.9996 27.1436 20.4889 26.9142C20.6601 26.8339 20.9031 26.7208 21.0287 26.6628C21.1544 26.6049 21.444 26.4681 21.6724 26.3588C22.0935 26.1576 22.2871 26.0663 22.7729 25.8401C23.0385 25.7163 23.5902 25.4569 23.998 25.264C24.1122 25.21 24.3085 25.1191 24.434 25.0621C24.5596 25.0051 24.8306 24.8787 25.0362 24.7811C25.2417 24.6837 25.5127 24.5562 25.6384 24.498C25.764 24.4398 26.0444 24.3079 26.2612 24.205C26.4782 24.102 26.7586 23.9696 26.8842 23.9108C27.0099 23.8518 27.2247 23.7507 27.3617 23.6859C27.4989 23.6212 27.7231 23.5179 27.8601 23.4562C27.9971 23.3946 28.2587 23.2718 28.4415 23.1834C28.6242 23.0949 29.026 22.9051 29.3344 22.7613C29.6427 22.6177 30.126 22.389 30.4084 22.2532C30.6907 22.1173 30.93 22.0062 30.94 22.0062C30.9501 22.0062 31.1721 21.9021 31.4334 21.775C31.6947 21.6478 31.9157 21.5437 31.9246 21.5437C31.939 21.5437 32.2916 21.3782 33.1342 20.9759C33.9041 20.6083 34.3281 20.4086 34.3385 20.4086C34.3449 20.4086 34.553 20.3118 34.8011 20.1936C35.0491 20.0752 35.3911 19.9134 35.5611 19.8339C36.1117 19.5761 36.8095 18.9589 36.8095 18.7296C36.8095 18.7049 36.8236 18.6847 36.8409 18.6847C36.9491 18.6847 37.0054 18.1652 36.923 17.926C36.7946 17.5529 36.2971 17.0946 35.8026 16.8938C35.6941 16.8498 35.6054 16.7995 35.6054 16.7822C35.6052 16.7648 35.5716 16.7507 35.5306 16.7507C35.4709 16.7507 34.9301 16.5417 34.3385 16.2901C34.2929 16.2707 34.1527 16.2131 34.0271 16.1619C33.9015 16.1109 33.7426 16.0451 33.6741 16.0157C33.6056 15.9862 33.4561 15.9286 33.3419 15.8877C33.2276 15.8468 33.0595 15.7801 32.9681 15.7394C32.8767 15.6988 32.6057 15.587 32.366 15.4912C32.1261 15.3953 31.8832 15.2965 31.8261 15.2714C31.7035 15.2176 31.6082 15.1803 31.4107 15.1089C31.3309 15.0799 31.2094 15.033 31.1409 15.0045C31.0724 14.9761 30.9135 14.9107 30.7879 14.8593C30.6622 14.808 30.5034 14.742 30.4349 14.7129C30.3664 14.6837 30.2262 14.6264 30.1234 14.5854C30.0206 14.5445 29.8805 14.487 29.812 14.4578C29.7435 14.4286 29.4819 14.3247 29.2306 14.227C28.9794 14.1294 28.7084 14.0214 28.6284 13.9873C28.5485 13.9531 28.4457 13.9091 28.4 13.8894C28.1044 13.7626 27.4759 13.5133 27.452 13.5133C27.4361 13.5133 27.344 13.478 27.2471 13.435C27.1504 13.3918 26.987 13.3231 26.8842 13.2821C26.7815 13.2411 26.6412 13.1836 26.5727 13.1545C26.5042 13.1254 26.3454 13.0598 26.2197 13.0088C26.0941 12.9578 25.954 12.9 25.9084 12.8807C25.8626 12.8612 25.601 12.7569 25.3269 12.6488C25.0529 12.5408 24.7725 12.4277 24.704 12.3978C24.6355 12.3678 24.3365 12.2461 24.0395 12.1274C23.7426 12.0086 23.4622 11.8953 23.4166 11.8756C23.371 11.8559 23.2275 11.7984 23.0979 11.7479C22.745 11.6105 22.7575 11.5726 23.2419 11.31C23.475 11.1836 23.806 11.0031 23.9772 10.9091C24.1485 10.815 24.3775 10.6956 24.486 10.6437C24.8005 10.4936 24.78 10.4749 23.8942 10.1051C23.7686 10.0527 23.648 9.994 23.6264 9.97464C23.6046 9.95528 23.5625 9.93946 23.5327 9.93946C23.5029 9.93946 23.3816 9.89225 23.2632 9.83442C23.1449 9.77659 23.0326 9.72925 23.0139 9.72925C22.995 9.72925 22.8442 9.66585 22.679 9.58827C22.5136 9.5107 22.2102 9.37516 22.0046 9.28695C21.7991 9.19887 21.5467 9.08991 21.444 9.04486C21.1346 8.90919 20.8882 8.80175 20.8004 8.76429C20.6839 8.71455 20.4594 8.61672 20.2397 8.51991C20.1369 8.47473 19.8846 8.36564 19.6791 8.27782C19.4735 8.18986 19.2066 8.07369 19.0861 8.01965C18.9655 7.96561 18.8585 7.92132 18.8484 7.92132C18.8382 7.92132 18.722 7.87183 18.5901 7.81121C18.4581 7.7506 18.2941 7.67707 18.2256 7.64783C18.1571 7.6186 17.8955 7.50635 17.6442 7.3984C17.393 7.29057 17.15 7.18617 17.1044 7.16668C16.8816 7.07138 16.6739 6.97799 16.5255 6.90674C16.4356 6.86358 16.3481 6.82828 16.3311 6.82828C16.3142 6.82828 16.1766 6.77031 16.0254 6.69944C15.6559 6.52619 15.7026 6.49962 14.7186 7.44143C14.5232 7.62847 14.27 7.86487 14.1559 7.96687C14.0416 8.06888 13.836 8.26086 13.699 8.39374C13.3086 8.77188 13.3332 8.78947 12.8892 7.81628C12.7942 7.6081 12.6731 7.34322 12.62 7.22768C12.1805 6.27056 12.0134 5.90418 11.6514 5.10437C11.5834 4.95415 11.4489 4.6608 11.3526 4.45275C10.8904 3.45361 10.8836 3.43615 10.9499 3.40438C10.9772 3.39122 11.4949 3.39122 12.1001 3.40438C12.7055 3.41742 14.1257 3.44791 15.2564 3.47196ZM19.8827 17.7113C19.981 17.8689 19.9915 17.8738 20.2867 17.9017C20.7396 17.9443 20.7969 17.9967 20.7652 18.3402C20.7326 18.6936 20.6784 18.7549 20.462 18.6826C19.9521 18.512 19.3936 18.7481 19.644 19.0283C19.6981 19.0889 19.7752 19.1053 20.0074 19.1058C20.497 19.1071 20.859 19.2048 21.0225 19.3799C21.4584 19.8467 21.4799 20.3657 21.081 20.7953C20.9969 20.8861 20.9802 20.9374 20.9985 21.0512C21.029 21.2418 21.0052 21.27 20.7252 21.3762C20.451 21.48 20.3935 21.47 20.3156 21.3047C20.2647 21.197 20.2354 21.1843 19.9902 21.1646C19.5585 21.1298 19.4706 21.065 19.4752 20.7857C19.4805 20.4659 19.5485 20.3069 19.6552 20.3648C19.8845 20.4891 20.5862 20.3934 20.6371 20.2309C20.7252 19.9498 20.5442 19.8583 19.9282 19.8725C18.935 19.8953 18.4781 18.9246 19.1476 18.2139C19.2372 18.1187 19.2509 18.073 19.2321 17.9317C19.2062 17.7356 19.2377 17.6982 19.498 17.6154C19.7617 17.5315 19.7722 17.5342 19.8827 17.7113Z" fill="url(#paint0_linear_157_89)"/>
  </g>
  <defs>
    <filter id="filter0_d_157_89" x="0" y="0" width="46.844" height="43.8874" filterUnits="userSpaceOnUse" color-interpolation-filters="sRGB">
      <feFlood flood-opacity="0" result="BackgroundImageFix"/>
      <feColorMatrix in="SourceAlpha" type="matrix" values="0 0 0 0 0 0 0 0 0 0 0 0 0 0 0 0 0 0 127 0" result="hardAlpha"/>
      <feOffset dy="4"/>
      <feGaussianBlur stdDeviation="2"/>
      <feComposite in2="hardAlpha" operator="out"/>
      <feColorMatrix type="matrix" values="0 0 0 0 0 0 0 0 0 0 0 0 0 0 0 0 0 0 0.25 0"/>
      <feBlend mode="normal" in2="BackgroundImageFix" result="effect1_dropShadow_157_89"/>
      <feBlend mode="normal" in="SourceGraphic" in2="effect1_dropShadow_157_89" result="shape"/>
    </filter>
    <linearGradient id="paint0_linear_157_89" x1="41.5" y1="29" x2="-2" y2="29" gradientUnits="userSpaceOnUse">
      <stop offset="0.0989583" stop-color="#0C745B"/>
      <stop offset="1" stop-color="#E8E8E8" stop-opacity="0"/>
    </linearGradient>
  </defs>
</svg>
