<svg width="607.6800048828125px" height="124.439990234375px" xmlns="http://www.w3.org/2000/svg" viewBox="-53.84000244140623 12.780004882812499 607.6800048828125 124.439990234375" style="background: rgb(255, 255, 255);" preserveAspectRatio="xMidYMid"><defs><linearGradient id="editing-glowing-gradient" x1="0.8146601955249186" x2="0.18533980447508142" y1="0.8885729807284856" y2="0.11142701927151444"><stop offset="0" stop-color="#a2d895"></stop><stop offset="1" stop-color="#75b34c"></stop></linearGradient><filter id="editing-glowing" x="-100%" y="-100%" width="300%" height="300%"><feGaussianBlur in="SourceGraphic" result="blur" stdDeviation="10"></feGaussianBlur><feMerge><feMergeNode in="blur"></feMergeNode><feMergeNode in="SourceGraphic"></feMergeNode></feMerge></filter></defs><g filter="url(#editing-glowing)"><g transform="translate(34.83500397205353, 104.44000053405762)"><path d="M30.21-33.92L30.21-33.92L30.21-33.92Q25.02-33.92 21.25-35.65L21.25-35.65L19.20-25.28L31.55-25.28L31.55-25.28Q31.55-21.89 29.86-19.74L29.86-19.74L29.86-19.74Q28.16-17.60 25.09-17.60L25.09-17.60L25.09-17.60Q21.76-17.60 18.69-18.82L18.69-18.82L18.69-18.82Q18.05-19.07 17.98-19.14L17.98-19.14L14.34 0L0.38 0L8.51-42.24L37.06-42.24L37.06-42.24Q37.06-38.34 35.23-36.13L35.23-36.13L35.23-36.13Q33.41-33.92 30.21-33.92ZM50.82-3.52L50.82-3.52L50.82-3.52Q48.83 1.28 42.50 1.28L42.50 1.28L42.50 1.28Q39.23 1.28 37.18-0.96L37.18-0.96L37.18-0.96Q35.46-2.94 35.46-4.93L35.46-4.93L35.46-4.93Q35.46-10.11 37.82-20.22L37.82-20.22L40.19-32.64L53.18-33.92L49.28-13.70L49.28-13.70Q48.19-8.96 48.19-7.30L48.19-7.30L48.19-7.30Q48.19-3.65 50.82-3.52ZM41.34-41.54L41.34-41.54L41.34-41.54Q41.34-44.03 43.42-45.38L43.42-45.38L43.42-45.38Q45.50-46.72 48.51-46.72L48.51-46.72L48.51-46.72Q51.52-46.72 53.34-45.38L53.34-45.38L53.34-45.38Q55.17-44.03 55.17-41.54L55.17-41.54L55.17-41.54Q55.17-39.04 53.15-37.76L53.15-37.76L53.15-37.76Q51.14-36.48 48.13-36.48L48.13-36.48L48.13-36.48Q45.12-36.48 43.23-37.76L43.23-37.76L43.23-37.76Q41.34-39.04 41.34-41.54ZM83.33 1.28L83.33 1.28L83.33 1.28Q75.58 1.28 75.58-4.74L75.58-4.74L75.58-4.74Q75.65-6.40 76.16-9.22L76.16-9.22L77.31-15.10L77.31-15.10Q79.04-23.42 79.04-25.28L79.04-25.28L79.04-25.28Q79.04-28.99 76.86-28.99L76.86-28.99L76.86-28.99Q73.22-28.99 71.30-19.46L71.30-19.46L67.52 0L54.66 1.28L61.31-32.70L71.81-33.92L70.78-27.65L70.78-27.65Q73.79-33.92 83.01-33.92L83.01-33.92L83.01-33.92Q87.49-33.92 89.38-32.03L89.38-32.03L89.38-32.03Q91.26-30.14 91.26-25.92L91.26-25.92L91.26-25.92Q91.26-21.95 89.22-12.67L89.22-12.67L89.22-12.67Q88.26-8.51 88.26-6.94L88.26-6.94L88.26-6.94Q88.26-5.38 89.12-4.48L89.12-4.48L89.12-4.48Q89.98-3.58 91.26-3.46L91.26-3.46L91.26-3.46Q90.62-1.28 88.42 0L88.42 0L88.42 0Q86.21 1.28 83.33 1.28ZM99.17-1.92L99.17-1.92L99.17-1.92Q97.66-3.58 96.99-6.21L96.99-6.21L96.99-6.21Q96.32-8.83 96.32-13.12L96.32-13.12L96.32-13.12Q96.32-17.41 97.79-21.31L97.79-21.31L97.79-21.31Q99.26-25.22 101.95-28.03L101.95-28.03L101.95-28.03Q107.46-33.92 116.54-33.92L116.54-33.92L116.54-33.92Q119.81-33.92 122.18-32.83L122.18-32.83L133.12-33.92L128.38-8.96L128.38-8.96Q128.19-8.19 128.19-6.78L128.19-6.78L128.19-6.78Q128.19-5.38 129.06-4.48L129.06-4.48L129.06-4.48Q129.92-3.58 131.20-3.46L131.20-3.46L131.20-3.46Q130.56-1.28 128.22 0L128.22 0L128.22 0Q125.89 1.28 123.26 1.28L123.26 1.28L123.26 1.28Q120.64 1.28 118.88 0.29L118.88 0.29L118.88 0.29Q117.12-0.70 116.61-2.37L116.61-2.37L116.61-2.37Q115.58-0.77 113.41 0.26L113.41 0.26L113.41 0.26Q111.23 1.28 108.32 1.28L108.32 1.28L108.32 1.28Q105.41 1.28 103.04 0.51L103.04 0.51L103.04 0.51Q100.67-0.26 99.17-1.92ZM112.67-27.90L112.67-27.90L112.67-27.90Q111.94-26.75 111.30-24.80L111.30-24.80L111.30-24.80Q110.66-22.85 109.60-17.63L109.60-17.63L109.60-17.63Q108.54-12.42 108.54-8.70L108.54-8.70L108.54-8.70Q108.54-4.99 109.12-3.90L109.12-3.90L109.12-3.90Q109.70-2.82 110.72-2.82L110.72-2.82L110.72-2.82Q112.77-2.82 114.27-4.77L114.27-4.77L114.27-4.77Q115.78-6.72 116.35-10.18L116.35-10.18L119.74-28.93L119.74-28.93Q118.40-30.08 116.83-30.08L116.83-30.08L116.83-30.08Q115.26-30.08 114.34-29.57L114.34-29.57L114.34-29.57Q113.41-29.06 112.67-27.90ZM163.65 1.28L163.65 1.28L163.65 1.28Q155.90 1.28 155.90-4.74L155.90-4.74L155.90-4.74Q155.97-6.40 156.48-9.22L156.48-9.22L157.63-15.10L157.63-15.10Q159.36-23.42 159.36-25.28L159.36-25.28L159.36-25.28Q159.36-28.99 157.18-28.99L157.18-28.99L157.18-28.99Q153.54-28.99 151.62-19.46L151.62-19.46L147.84 0L134.98 1.28L141.63-32.70L152.13-33.92L151.10-27.65L151.10-27.65Q154.11-33.92 163.33-33.92L163.33-33.92L163.33-33.92Q167.81-33.92 169.70-32.03L169.70-32.03L169.70-32.03Q171.58-30.14 171.58-25.92L171.58-25.92L171.58-25.92Q171.58-21.95 169.54-12.67L169.54-12.67L169.54-12.67Q168.58-8.51 168.58-6.94L168.58-6.94L168.58-6.94Q168.58-5.38 169.44-4.48L169.44-4.48L169.44-4.48Q170.30-3.58 171.58-3.46L171.58-3.46L171.58-3.46Q170.94-1.28 168.74 0L168.74 0L168.74 0Q166.53 1.28 163.65 1.28ZM178.30-39.68L178.30-39.68L178.30-39.68Q180.16-43.52 185.31-43.52L185.31-43.52L185.31-43.52Q190.46-43.52 192.86-40.54L192.86-40.54L192.86-40.54Q195.26-37.57 195.26-30.72L195.26-30.72L195.26-7.87L210.82-42.18L218.43-42.18L198.53 0L183.55 0L181.63-30.72L181.63-30.72Q181.44-34.11 180.51-36.42L180.51-36.42L180.51-36.42Q179.58-38.72 178.30-39.68ZM231.23-3.52L231.23-3.52L231.23-3.52Q229.25 1.28 222.91 1.28L222.91 1.28L222.91 1.28Q219.65 1.28 217.60-0.96L217.60-0.96L217.60-0.96Q215.87-2.94 215.87-4.93L215.87-4.93L215.87-4.93Q215.87-10.11 218.24-20.22L218.24-20.22L220.61-32.64L233.60-33.92L229.70-13.70L229.70-13.70Q228.61-8.96 228.61-7.30L228.61-7.30L228.61-7.30Q228.61-3.65 231.23-3.52ZM221.76-41.54L221.76-41.54L221.76-41.54Q221.76-44.03 223.84-45.38L223.84-45.38L223.84-45.38Q225.92-46.72 228.93-46.72L228.93-46.72L228.93-46.72Q231.94-46.72 233.76-45.38L233.76-45.38L233.76-45.38Q235.58-44.03 235.58-41.54L235.58-41.54L235.58-41.54Q235.58-39.04 233.57-37.76L233.57-37.76L233.57-37.76Q231.55-36.48 228.54-36.48L228.54-36.48L228.54-36.48Q225.54-36.48 223.65-37.76L223.65-37.76L223.65-37.76Q221.76-39.04 221.76-41.54ZM255.81-22.46L255.81-22.46L255.81-22.46Q256.70-24.83 256.70-26.88L256.70-26.88L256.70-26.88Q256.70-30.66 253.63-30.66L253.63-30.66L253.63-30.66Q252.03-30.66 250.72-29.22L250.72-29.22L250.72-29.22Q249.41-27.78 249.41-25.98L249.41-25.98L249.41-25.98Q249.41-24.70 250.43-23.68L250.43-23.68L250.43-23.68Q251.90-22.27 255.68-19.97L255.68-19.97L255.68-19.97Q259.46-17.66 260.90-15.78L260.90-15.78L260.90-15.78Q262.34-13.89 262.34-11.30L262.34-11.30L262.34-11.30Q262.34-8.70 261.09-6.34L261.09-6.34L261.09-6.34Q259.84-3.97 257.60-2.30L257.60-2.30L257.60-2.30Q252.80 1.28 245.12 1.28L245.12 1.28L245.12 1.28Q240.96 1.28 237.76-0.90L237.76-0.90L237.76-0.90Q234.56-3.01 234.56-5.50L234.56-5.50L234.56-5.50Q234.56-8 236.38-9.47L236.38-9.47L236.38-9.47Q238.21-10.94 240.90-10.94L240.90-10.94L240.90-10.94Q243.58-10.94 245.25-9.92L245.25-9.92L245.25-9.92Q244.42-7.81 244.42-6.40L244.42-6.40L244.42-6.40Q244.42-2.18 248-2.18L248-2.18L248-2.18Q249.54-2.18 250.56-3.14L250.56-3.14L250.56-3.14Q251.58-4.10 251.58-5.76L251.58-5.76L251.58-5.76Q251.58-9.02 246.08-12.48L246.08-12.48L246.08-12.48Q241.60-15.42 240.58-16.58L240.58-16.58L240.58-16.58Q238.85-18.62 238.85-21.18L238.85-21.18L238.85-21.18Q238.85-23.74 240.06-26.18L240.06-26.18L240.06-26.18Q241.28-28.61 243.52-30.34L243.52-30.34L243.52-30.34Q248.19-33.92 256.32-33.92L256.32-33.92L256.32-33.92Q260.48-33.92 262.94-32.26L262.94-32.26L262.94-32.26Q265.41-30.59 265.41-27.78L265.41-27.78L265.41-27.78Q265.41-24.96 263.71-23.36L263.71-23.36L263.71-23.36Q262.02-21.76 258.94-21.76L258.94-21.76L258.94-21.76Q256.83-21.76 255.81-22.46ZM283.14-3.52L283.14-3.52L283.14-3.52Q281.15 1.28 274.82 1.28L274.82 1.28L274.82 1.28Q271.55 1.28 269.50-0.96L269.50-0.96L269.50-0.96Q267.78-2.94 267.78-4.93L267.78-4.93L267.78-4.93Q267.78-10.11 270.14-20.22L270.14-20.22L272.51-32.64L285.50-33.92L281.60-13.70L281.60-13.70Q280.51-8.96 280.51-7.30L280.51-7.30L280.51-7.30Q280.51-3.65 283.14-3.52ZM273.66-41.54L273.66-41.54L273.66-41.54Q273.66-44.03 275.74-45.38L275.74-45.38L275.74-45.38Q277.82-46.72 280.83-46.72L280.83-46.72L280.83-46.72Q283.84-46.72 285.66-45.38L285.66-45.38L285.66-45.38Q287.49-44.03 287.49-41.54L287.49-41.54L287.49-41.54Q287.49-39.04 285.47-37.76L285.47-37.76L285.47-37.76Q283.46-36.48 280.45-36.48L280.45-36.48L280.45-36.48Q277.44-36.48 275.55-37.76L275.55-37.76L275.55-37.76Q273.66-39.04 273.66-41.54ZM302.53 1.28L302.53 1.28L302.53 1.28Q288.45 1.28 288.45-11.97L288.45-11.97L288.45-11.97Q288.45-21.38 293.63-27.46L293.63-27.46L293.63-27.46Q299.14-33.92 308.67-33.92L308.67-33.92L308.67-33.92Q315.58-33.92 319.10-30.72L319.10-30.72L319.10-30.72Q322.62-27.52 322.62-20.80L322.62-20.80L322.62-20.80Q322.62-10.56 317.12-4.61L317.12-4.61L317.12-4.61Q311.74 1.28 302.53 1.28ZM304.19-26.56L304.19-26.56L304.19-26.56Q303.42-24.83 302.82-22.24L302.82-22.24L302.82-22.24Q302.21-19.65 301.44-15.55L301.44-15.55L301.44-15.55Q300.67-11.46 300.67-6.40L300.67-6.40L300.67-6.40Q300.67-4.74 301.22-3.65L301.22-3.65L301.22-3.65Q301.76-2.56 303.23-2.56L303.23-2.56L303.23-2.56Q304.70-2.56 305.63-3.26L305.63-3.26L305.63-3.26Q306.56-3.97 307.26-5.63L307.26-5.63L307.26-5.63Q308.54-8.58 309.57-14.05L309.57-14.05L309.57-14.05Q310.59-19.52 310.69-21.89L310.69-21.89L310.69-21.89Q310.78-24.26 310.78-26.02L310.78-26.02L310.78-26.02Q310.78-27.78 310.27-28.93L310.27-28.93L310.27-28.93Q309.76-30.08 308.32-30.08L308.32-30.08L308.32-30.08Q306.88-30.08 305.92-29.18L305.92-29.18L305.92-29.18Q304.96-28.29 304.19-26.56ZM353.47 1.28L353.47 1.28L353.47 1.28Q345.73 1.28 345.73-4.74L345.73-4.74L345.73-4.74Q345.79-6.40 346.30-9.22L346.30-9.22L347.46-15.10L347.46-15.10Q349.18-23.42 349.18-25.28L349.18-25.28L349.18-25.28Q349.18-28.99 347.01-28.99L347.01-28.99L347.01-28.99Q343.36-28.99 341.44-19.46L341.44-19.46L337.66 0L324.80 1.28L331.46-32.70L341.95-33.92L340.93-27.65L340.93-27.65Q343.94-33.92 353.15-33.92L353.15-33.92L353.15-33.92Q357.63-33.92 359.52-32.03L359.52-32.03L359.52-32.03Q361.41-30.14 361.41-25.92L361.41-25.92L361.41-25.92Q361.41-21.95 359.36-12.67L359.36-12.67L359.36-12.67Q358.40-8.51 358.40-6.94L358.40-6.94L358.40-6.94Q358.40-5.38 359.26-4.48L359.26-4.48L359.26-4.48Q360.13-3.58 361.41-3.46L361.41-3.46L361.41-3.46Q360.77-1.28 358.56 0L358.56 0L358.56 0Q356.35 1.28 353.47 1.28ZM358.46 8.83L358.46 8.83L358.46 8.83Q361.73 8.45 363.78 4.22L363.78 4.22L363.78 4.22Q365.89-0.06 367.81-9.92L367.81-9.92L374.02-42.24L387.90-42.24L381.70-9.92L381.70-9.92Q379.33 2.62 375.42 7.55L375.42 7.55L375.42 7.55Q373.38 10.11 370.78 11.14L370.78 11.14L370.78 11.14Q368.19 12.16 365.38 12.16L365.38 12.16L365.38 12.16Q362.56 12.16 360.74 11.14L360.74 11.14L360.74 11.14Q358.91 10.11 358.46 8.83ZM402.43 0L388.74 0L396.54-42.05L396.54-42.05Q402.88-42.75 412.13-42.75L412.13-42.75L412.13-42.75Q421.38-42.75 425.66-40.06L425.66-40.06L425.66-40.06Q429.95-37.38 429.95-31.97L429.95-31.97L429.95-31.97Q429.95-26.56 427.17-23.17L427.17-23.17L427.17-23.17Q424.38-19.78 419.58-18.69L419.58-18.69L419.58-18.69Q420.67-13.38 423.17-9.09L423.17-9.09L423.17-9.09Q425.47-5.06 428.16-3.78L428.16-3.78L428.16-3.78Q427.20-1.09 425.25 0.10L425.25 0.10L425.25 0.10Q423.30 1.28 420.51 1.28L420.51 1.28L420.51 1.28Q417.73 1.28 415.55-0.35L415.55-0.35L415.55-0.35Q413.38-1.98 411.65-4.99L411.65-4.99L411.65-4.99Q408-11.52 407.62-21.82L407.62-21.82L408.06-21.82L408.06-21.82Q412.80-21.95 415.17-24.42L415.17-24.42L415.17-24.42Q417.54-26.88 417.54-32.06L417.54-32.06L417.54-32.06Q417.54-38.53 412.10-38.78L412.10-38.78L410.69-38.78L410.69-38.78Q410.11-38.78 409.79-38.72L409.79-38.72L402.43 0Z" fill="url(#editing-glowing-gradient)"></path></g></g><style>text {
  font-size: 64px;
  font-family: Arial Black;
  dominant-baseline: central;
  text-anchor: middle;
}</style></svg>