<svg  width="21" height="21" viewBox="0 0 87 87" fill="none" xmlns="http://www.w3.org/2000/svg">
<path d="M53.3732 84.9557C52.0489 84.9557 50.8049 84.0728 50.4437 82.7084C50.0424 81.1032 50.9654 79.4579 52.5706 79.0164C68.8635 74.7225 80.2203 59.9546 80.2203 43.0999C80.2203 22.6335 63.5663 5.9794 43.0999 5.9794C25.7235 5.9794 14.3265 16.1324 8.98917 22.2723H20.7875C22.4328 22.2723 23.7972 23.6367 23.7972 25.282C23.7972 26.9274 22.5131 28.3319 20.8276 28.3319H3.0499C2.76899 28.3319 2.48807 28.2918 2.20716 28.2116C1.84599 28.0912 1.52495 27.9306 1.24404 27.73C0.882865 27.4892 0.601954 27.1682 0.401302 26.807C0.200651 26.4057 0.0401302 26.0044 0 25.563C0 25.4426 0 25.3623 0 25.2419V7.02279C0 5.37745 1.36443 4.01302 3.00977 4.01302C4.65511 4.01302 6.01954 5.37745 6.01954 7.02279V16.6139C12.5608 9.59113 24.8807 0 43.14 0C66.9372 0 86.28 19.3428 86.28 43.14C86.28 62.7236 73.0772 79.8993 54.1357 84.8754C53.8949 84.9156 53.614 84.9557 53.3732 84.9557Z" fill="#292D32"/>
<path d="M40.2908 86.1998C40.2105 86.1998 40.0901 86.1997 40.0098 86.1596C35.7159 85.8787 31.5022 84.9156 27.4892 83.3505C26.3254 82.9091 25.563 81.7453 25.563 80.5013C25.563 80.1401 25.6432 79.7789 25.7636 79.4579C26.3656 77.9329 28.1313 77.1303 29.6562 77.7323C33.1074 79.0967 36.7593 79.8993 40.4513 80.1802H40.4914C42.0966 80.2605 43.3005 81.6249 43.3005 83.2301V83.3906C43.1801 84.9557 41.8558 86.1998 40.2908 86.1998ZM18.179 77.5718C17.4968 77.5718 16.8547 77.3711 16.2929 76.9297C12.9219 74.2409 9.99243 71.0707 7.54448 67.4991C7.18331 66.9774 6.98266 66.4155 6.98266 65.8136C6.98266 64.8103 7.46422 63.8873 8.30696 63.3255C9.63126 62.4025 11.5976 62.7637 12.4805 64.088C14.6074 67.178 17.1356 69.9069 20.0651 72.1943C20.7473 72.7561 21.1888 73.5989 21.1888 74.5219C21.1888 75.2041 20.9881 75.8863 20.5467 76.4481C19.9849 77.1704 19.102 77.5718 18.179 77.5718ZM4.7755 57.9882C3.4512 57.9882 2.28742 57.1455 1.92625 55.9014C0.642084 51.768 0 47.4741 0 43.14C0 41.4947 1.36443 40.1302 3.00977 40.1302C4.65511 40.1302 6.01954 41.4947 6.01954 43.14C6.01954 46.8721 6.58136 50.5641 7.66487 54.0956C7.74514 54.3765 7.78527 54.6975 7.78527 55.0186C7.78527 56.3429 6.94253 57.4665 5.69849 57.8678C5.37745 57.9481 5.09654 57.9882 4.7755 57.9882Z" fill="#292D32"/>
<path d="M43.14 59.1921C52.0052 59.1921 59.1921 52.0052 59.1921 43.14C59.1921 34.2747 52.0052 27.0879 43.14 27.0879C34.2747 27.0879 27.0879 34.2747 27.0879 43.14C27.0879 52.0052 34.2747 59.1921 43.14 59.1921Z" fill="#292D32"/>
</svg> 
