<svg width="21" height="15" viewBox="0 0 21 15" fill="none" xmlns="http://www.w3.org/2000/svg">
  <path d="M10.4999 0.556152C4.13226 0.556152 -0.0300841 5.82308 4.0364e-05 7.49969C0.0301701 9.1763 4.22285 14.3747 10.4999 14.4431C16.777 14.5115 20.9801 9.23747 20.9998 7.49969C21.0196 5.76192 16.8676 0.556152 10.4999 0.556152ZM10.4048 2.02636C13.6446 1.99396 16.8349 3.60208 18.796 6.17037C19.0888 6.62153 19.5934 7.10207 19.4397 7.68856C18.1035 10.3277 15.4153 12.159 12.562 12.7747C8.80236 13.5593 4.71727 11.918 2.3487 8.91452C2.03698 8.41557 1.47571 7.97723 1.52439 7.33306C3.21731 4.10618 6.79584 2.07787 10.4048 2.02636ZM10.5429 3.36439C10.4947 3.36439 10.4465 3.36512 10.3982 3.36685C8.54369 3.38318 6.82978 4.80712 6.46185 6.62257C6.05371 8.35478 6.93161 10.2717 8.49448 11.1144C10.0377 12.0106 12.1399 11.7249 13.3926 10.4554C14.6885 9.23116 15.0215 7.13708 14.1604 5.57452C13.4717 4.24893 12.0362 3.36814 10.5429 3.36439Z" fill="#0C9C2B"/>
</svg>
